<?xml version="1.0" encoding="UTF-8"?>
<!DOCTYPE svg PUBLIC "-//W3C//DTD SVG 1.1//EN" "http://www.w3.org/Graphics/SVG/1.1/DTD/svg11.dtd">
<svg xmlns="http://www.w3.org/2000/svg" version="1.1" width="1039px" height="170px" style="shape-rendering:geometricPrecision; text-rendering:geometricPrecision; image-rendering:optimizeQuality; fill-rule:evenodd; clip-rule:evenodd" xmlns:xlink="http://www.w3.org/1999/xlink">
<g><path style="opacity:1" fill="#dfa719" d="M -0.5,-0.5 C 77.1667,-0.5 154.833,-0.5 232.5,-0.5C 232.5,55.8333 232.5,112.167 232.5,168.5C 154.833,168.5 77.1667,168.5 -0.5,168.5C -0.5,112.167 -0.5,55.8333 -0.5,-0.5 Z"/></g>
<g><path style="opacity:1" fill="#171002" d="M 232.5,-0.5 C 233.5,-0.5 234.5,-0.5 235.5,-0.5C 235.5,55.8333 235.5,112.167 235.5,168.5C 234.5,168.5 233.5,168.5 232.5,168.5C 232.5,112.167 232.5,55.8333 232.5,-0.5 Z"/></g>
<g><path style="opacity:1" fill="#dfa81b" d="M 235.5,-0.5 C 503.167,-0.5 770.833,-0.5 1038.5,-0.5C 1038.5,56.1667 1038.5,112.833 1038.5,169.5C 692.167,169.5 345.833,169.5 -0.5,169.5C -0.5,169.167 -0.5,168.833 -0.5,168.5C 77.1667,168.5 154.833,168.5 232.5,168.5C 233.5,168.5 234.5,168.5 235.5,168.5C 235.5,112.167 235.5,55.8333 235.5,-0.5 Z"/></g>
<g><path style="opacity:1" fill="#070401" d="M 113.5,18.5 C 143.99,16.3081 163.823,29.6414 173,58.5C 174.283,68.6595 172.616,78.3262 168,87.5C 155.922,111.028 140.922,132.361 123,151.5C 102.314,129.795 85.9806,105.129 74,77.5C 70.95,47.0393 84.1166,27.3726 113.5,18.5 Z"/></g>
<g><path style="opacity:1" fill="#dca519" d="M 114.5,26.5 C 134.619,24.3117 150.119,31.6451 161,48.5C 170.04,70.7129 164.873,88.8796 145.5,103C 121.496,114.874 101.663,110.04 86,88.5C 74.1421,57.8879 83.6421,37.2213 114.5,26.5 Z"/></g>
<g><path style="opacity:1" fill="#050300" d="M 806.5,45.5 C 808.5,45.5 810.5,45.5 812.5,45.5C 812.5,65.8333 812.5,86.1667 812.5,106.5C 814.827,106.665 816.993,107.331 819,108.5C 819.333,110.047 818.833,111.38 817.5,112.5C 809.193,113.498 800.86,113.831 792.5,113.5C 793.106,109.349 795.273,106.015 799,103.5C 799.667,89.1667 799.667,74.8333 799,60.5C 796.128,58.9614 793.961,56.7947 792.5,54C 792.833,53.1667 793.167,52.3333 793.5,51.5C 798.044,49.7248 802.377,47.7248 806.5,45.5 Z"/></g>
<g><path style="opacity:1" fill="#090601" d="M 861.5,46.5 C 867.629,45.5548 871.296,48.0548 872.5,54C 871.317,59.5278 867.817,62.3612 862,62.5C 856.144,61.131 854.144,57.4643 856,51.5C 857.73,49.5981 859.563,47.9314 861.5,46.5 Z"/></g>
<g><path style="opacity:1" fill="#070500" d="M 112.5,50.5 C 121.016,49.8851 129.349,50.7184 137.5,53C 143.83,59.4874 144.163,66.3207 138.5,73.5C 133.395,76.9839 127.728,78.3172 121.5,77.5C 121.5,82.5 121.5,87.5 121.5,92.5C 118.5,92.5 115.5,92.5 112.5,92.5C 112.5,78.5 112.5,64.5 112.5,50.5 Z"/></g>
<g><path style="opacity:1" fill="#090501" d="M 664.5,51.5 C 673.937,50.1193 682.604,51.9526 690.5,57C 698.822,71.3193 695.156,81.6527 679.5,88C 674.92,90.5474 670.253,90.8807 665.5,89C 664.521,87.2215 664.854,85.5548 666.5,84C 678.172,83.1976 682.339,77.031 679,65.5C 674.922,58.3819 669.256,56.7152 662,60.5C 661.333,75.5 661.333,90.5 662,105.5C 666.156,106.582 670.322,107.748 674.5,109C 673.707,110.085 673.04,111.252 672.5,112.5C 661.52,113.499 650.52,113.832 639.5,113.5C 640.16,108.979 642.66,105.646 647,103.5C 647.5,88.8371 647.667,74.1705 647.5,59.5C 644.312,59.3822 641.312,58.5489 638.5,57C 639.293,55.9148 639.96,54.7481 640.5,53.5C 648.657,52.8333 656.657,52.1666 664.5,51.5 Z"/></g>
<g><path style="opacity:1" fill="#030200" d="M 348.5,103.5 C 349.66,91.3403 349.827,79.0069 349,66.5C 348.487,67.5266 347.987,68.5266 347.5,69.5C 341.682,83.8076 335.849,98.141 330,112.5C 327.619,113.435 325.119,113.768 322.5,113.5C 316.699,98.0996 310.699,82.7663 304.5,67.5C 304.44,66.9569 304.107,66.6236 303.5,66.5C 302.175,79.3271 302.175,91.9938 303.5,104.5C 305.731,106.201 308.231,107.534 311,108.5C 311.265,110.163 310.765,111.663 309.5,113C 302.842,113.5 296.175,113.666 289.5,113.5C 289.34,111.801 289.506,110.134 290,108.5C 291.973,107.36 293.807,106.027 295.5,104.5C 296.833,89.8333 296.833,75.1667 295.5,60.5C 293.189,59.7865 291.022,58.7865 289,57.5C 288.735,55.8374 289.235,54.3374 290.5,53C 298.08,52.1868 305.58,52.3534 313,53.5C 318.667,67.5 324.333,81.5 330,95.5C 335.736,81.4595 341.569,67.4595 347.5,53.5C 355.138,52.5025 362.804,52.1692 370.5,52.5C 369.84,57.0211 367.34,60.3544 363,62.5C 362.5,77.1629 362.333,91.8295 362.5,106.5C 365.568,107.022 368.568,107.855 371.5,109C 370.707,110.085 370.04,111.252 369.5,112.5C 360.19,113.498 350.857,113.832 341.5,113.5C 341.343,112.127 341.51,110.793 342,109.5C 344.063,107.266 346.229,105.266 348.5,103.5 Z"/></g>
<g><path style="opacity:1" fill="#d09c18" d="M 121.5,57.5 C 124.978,57.1842 128.312,57.6842 131.5,59C 134.943,68.0873 131.61,72.254 121.5,71.5C 121.5,66.8333 121.5,62.1667 121.5,57.5 Z"/></g>
<g><path style="opacity:1" fill="#271d05" d="M 304.5,67.5 C 303.505,79.6554 303.171,91.9887 303.5,104.5C 302.175,91.9938 302.175,79.3271 303.5,66.5C 304.107,66.6236 304.44,66.9569 304.5,67.5 Z"/></g>
<g><path style="opacity:1" fill="#674d0c" d="M 348.5,103.5 C 348.828,91.9877 348.495,80.6544 347.5,69.5C 347.987,68.5266 348.487,67.5266 349,66.5C 349.827,79.0069 349.66,91.3403 348.5,103.5 Z"/></g>
<g><path style="opacity:1" fill="#050300" d="M 443.5,70.5 C 444.496,70.4142 445.329,70.7476 446,71.5C 446.619,74.0318 447.619,76.3651 449,78.5C 452.167,76 455.333,73.5 458.5,71C 465.655,69.1663 471.155,71.333 475,77.5C 475.5,87.1609 475.666,96.8276 475.5,106.5C 478.097,106.643 480.431,107.477 482.5,109C 481.707,110.085 481.04,111.252 480.5,112.5C 474.537,113.496 468.537,113.829 462.5,113.5C 462.666,103.828 462.5,94.1609 462,84.5C 460.972,82.4841 459.305,81.4841 457,81.5C 454.739,81.8646 452.573,82.5313 450.5,83.5C 449.167,91.1667 449.167,98.8333 450.5,106.5C 455.037,106.828 456.204,108.828 454,112.5C 445.919,113.482 437.752,113.816 429.5,113.5C 429.375,108.772 431.542,105.439 436,103.5C 436.667,97.5 436.667,91.5 436,85.5C 432.907,84.0792 430.74,81.9126 429.5,79C 429.833,78.1667 430.167,77.3333 430.5,76.5C 435.044,74.7248 439.377,72.7248 443.5,70.5 Z"/></g>
<g><path style="opacity:1" fill="#080500" d="M 763.5,70.5 C 764.822,70.33 765.989,70.6634 767,71.5C 767.543,73.6314 768.376,75.6314 769.5,77.5C 771.984,75.517 774.317,73.3504 776.5,71C 781.802,70.1006 786.302,71.6006 790,75.5C 790.667,76.8333 790.667,78.1667 790,79.5C 787.791,81.3734 785.958,83.54 784.5,86C 782.527,86.4955 780.527,86.6621 778.5,86.5C 778.085,81.6259 775.752,80.4592 771.5,83C 770.187,90.4421 770.187,97.9421 771.5,105.5C 775.095,106.252 778.428,107.586 781.5,109.5C 780.96,110.748 780.293,111.915 779.5,113C 769.839,113.5 760.172,113.666 750.5,113.5C 750.375,108.772 752.542,105.439 757,103.5C 757.667,97.5 757.667,91.5 757,85.5C 753.907,84.0792 751.74,81.9126 750.5,79C 750.833,78.1667 751.167,77.3333 751.5,76.5C 755.692,74.6724 759.692,72.6724 763.5,70.5 Z"/></g>
<g><path style="opacity:1" fill="#030200" d="M 864.5,70.5 C 866.833,70.5 869.167,70.5 871.5,70.5C 871.168,82.5185 871.501,94.5185 872.5,106.5C 874.059,107.074 875.559,107.74 877,108.5C 877.667,109.5 877.667,110.5 877,111.5C 868.77,113.452 860.27,114.118 851.5,113.5C 851.34,111.801 851.506,110.134 852,108.5C 857.931,105.497 860.098,100.664 858.5,94C 859.583,87.7296 857.416,83.2296 852,80.5C 851.506,78.8659 851.34,77.1992 851.5,75.5C 856.132,74.4039 860.466,72.7372 864.5,70.5 Z"/></g>
<g><path style="opacity:1" fill="#050300" d="M 897.5,70.5 C 898.496,70.4142 899.329,70.7476 900,71.5C 900.681,73.8947 901.515,76.228 902.5,78.5C 905.975,76.1924 909.308,73.6924 912.5,71C 919.876,69.6697 925.376,72.1697 929,78.5C 929.5,87.8274 929.666,97.1607 929.5,106.5C 932.097,106.643 934.431,107.477 936.5,109C 935.707,110.085 935.04,111.252 934.5,112.5C 928.537,113.496 922.537,113.829 916.5,113.5C 916.666,103.828 916.5,94.1609 916,84.5C 914.972,82.4841 913.305,81.4841 911,81.5C 908.739,81.8646 906.573,82.5313 904.5,83.5C 903.167,91.1667 903.167,98.8333 904.5,106.5C 909.037,106.828 910.204,108.828 908,112.5C 899.919,113.482 891.752,113.816 883.5,113.5C 883.375,108.772 885.542,105.439 890,103.5C 890.667,97.5 890.667,91.5 890,85.5C 886.907,84.0792 884.74,81.9126 883.5,79C 883.833,78.1667 884.167,77.3333 884.5,76.5C 888.936,74.4778 893.269,72.4778 897.5,70.5 Z"/></g>
<g><path style="opacity:1" fill="#060400" d="M 392.5,70.5 C 400.975,69.1632 408.475,71.1632 415,76.5C 415.667,77.8333 416.333,79.1667 417,80.5C 417.333,88.8333 417.667,97.1667 418,105.5C 420.365,106.289 422.532,107.456 424.5,109C 423.833,110.333 423.167,111.667 422.5,113C 416.509,113.499 410.509,113.666 404.5,113.5C 404.799,111.396 404.466,109.396 403.5,107.5C 396.889,115.468 389.389,116.468 381,110.5C 375.691,102.893 376.857,96.3932 384.5,91C 391.158,90.5004 397.825,90.3337 404.5,90.5C 404.304,82.0447 399.971,78.878 391.5,81C 388.382,81.8725 385.382,83.0392 382.5,84.5C 381.155,83.6533 380.155,82.4866 379.5,81C 383.732,77.2567 388.065,73.7567 392.5,70.5 Z"/></g>
<g><path style="opacity:1" fill="#050300" d="M 502.5,70.5 C 512.903,68.6825 521.07,72.0159 527,80.5C 527.333,88.8333 527.667,97.1667 528,105.5C 530.052,106.723 532.219,107.723 534.5,108.5C 533.833,109.833 533.167,111.167 532.5,112.5C 526.537,113.496 520.537,113.829 514.5,113.5C 514.663,111.143 514.497,108.81 514,106.5C 511.407,108.549 508.907,110.715 506.5,113C 490.95,115.459 485.45,109.293 490,94.5C 491.167,93.3333 492.333,92.1667 493.5,91C 500.492,90.5004 507.492,90.3337 514.5,90.5C 515.057,86.1116 513.39,82.9449 509.5,81C 503.421,80.1026 497.754,81.2693 492.5,84.5C 489.832,83.485 489.166,81.8183 490.5,79.5C 494.564,76.4157 498.564,73.4157 502.5,70.5 Z"/></g>
<g><path style="opacity:1" fill="#070500" d="M 555.5,70.5 C 565.053,72.4366 574.72,73.4366 584.5,73.5C 584.5,75.1667 584.5,76.8333 584.5,78.5C 582.167,78.5 579.833,78.5 577.5,78.5C 579.36,89.188 575.027,96.3547 564.5,100C 561.64,103.03 561.973,105.697 565.5,108C 571.041,109.685 575.874,112.518 580,116.5C 580.073,121.136 578.239,124.969 574.5,128C 569.971,131.683 564.805,133.517 559,133.5C 552.409,132.895 545.909,131.728 539.5,130C 538.531,125.263 538.197,120.43 538.5,115.5C 540.199,115.34 541.866,115.506 543.5,116C 547.001,120.511 551.334,123.844 556.5,126C 560.73,127.246 564.064,126.08 566.5,122.5C 565.687,121.186 564.687,120.019 563.5,119C 558.256,116.797 553.422,113.964 549,110.5C 548.333,109.5 548.333,108.5 549,107.5C 550.961,104.865 553.461,103.031 556.5,102C 544.731,101.758 538.897,95.9242 539,84.5C 542.685,77.5906 548.185,72.9239 555.5,70.5 Z"/></g>
<g><path style="opacity:1" fill="#0a0601" d="M 609.5,70.5 C 625.385,70.3924 632.719,78.3924 631.5,94.5C 622.161,94.3335 612.827,94.5002 603.5,95C 605.467,102.955 610.467,105.955 618.5,104C 621.952,102.774 625.285,101.274 628.5,99.5C 630.384,100.693 630.884,102.359 630,104.5C 620.881,115.059 610.048,117.226 597.5,111C 586.226,98.6296 586.892,86.9629 599.5,76C 602.767,73.8713 606.101,72.038 609.5,70.5 Z"/></g>
<g><path style="opacity:1" fill="#050300" d="M 713.5,70.5 C 721.901,69.4738 729.401,71.4738 736,76.5C 736.667,77.8333 737.333,79.1667 738,80.5C 738.333,88.8333 738.667,97.1667 739,105.5C 741.185,106.67 743.351,107.836 745.5,109C 744.707,110.085 744.04,111.252 743.5,112.5C 737.537,113.496 731.537,113.829 725.5,113.5C 725.663,111.143 725.497,108.81 725,106.5C 717.847,114.595 709.847,115.595 701,109.5C 696.704,101.884 698.204,95.717 705.5,91C 712.158,90.5004 718.825,90.3337 725.5,90.5C 725.235,82.018 720.901,78.8513 712.5,81C 709.382,81.8725 706.382,83.0392 703.5,84.5C 702.155,83.6533 701.155,82.4866 700.5,81C 704.732,77.2567 709.065,73.7567 713.5,70.5 Z"/></g>
<g><path style="opacity:1" fill="#090501" d="M 822.5,71.5 C 830.167,71.5 837.833,71.5 845.5,71.5C 845.785,73.288 845.452,74.9547 844.5,76.5C 839.179,80.489 834.179,84.8223 829.5,89.5C 832.795,95.258 836.461,100.758 840.5,106C 842.436,106.813 844.436,107.313 846.5,107.5C 846.528,109.582 845.861,111.416 844.5,113C 838.916,113.806 833.416,113.639 828,112.5C 824.151,105.99 820.317,99.4899 816.5,93C 820.185,88.655 824.518,84.9883 829.5,82C 826.582,80.2912 823.748,78.4579 821,76.5C 820.878,74.7184 821.378,73.0518 822.5,71.5 Z"/></g>
<g><path style="opacity:1" fill="#070400" d="M 974.5,73.5 C 978.298,74.4834 982.298,74.8168 986.5,74.5C 986.5,75.8333 986.5,77.1667 986.5,78.5C 983.941,78.1984 981.607,78.5318 979.5,79.5C 980.888,89.6703 976.554,96.5036 966.5,100C 963.626,103.051 963.959,105.718 967.5,108C 986.429,113.721 987.429,121.721 970.5,132C 967.592,132.993 964.592,133.493 961.5,133.5C 954.736,132.914 948.07,131.747 941.5,130C 940.531,125.263 940.197,120.43 940.5,115.5C 942.199,115.34 943.866,115.506 945.5,116C 949.001,120.511 953.334,123.844 958.5,126C 962.18,127.027 965.347,126.194 968,123.5C 968.388,121.924 967.888,120.591 966.5,119.5C 960.924,117.131 955.757,114.131 951,110.5C 950.333,109.5 950.333,108.5 951,107.5C 953.408,105.044 956.241,103.211 959.5,102C 949.46,102.286 943.127,97.6195 940.5,88C 943.829,77.1651 951.162,71.3318 962.5,70.5C 966.724,70.6872 970.724,71.6872 974.5,73.5 Z"/></g>
<g><path style="opacity:1" fill="#4e3a0b" d="M 974.5,73.5 C 978.833,73.5 983.167,73.5 987.5,73.5C 987.5,75.5 987.5,77.5 987.5,79.5C 984.833,79.5 982.167,79.5 979.5,79.5C 981.607,78.5318 983.941,78.1984 986.5,78.5C 986.5,77.1667 986.5,75.8333 986.5,74.5C 982.298,74.8168 978.298,74.4834 974.5,73.5 Z"/></g>
<g><path style="opacity:1" fill="#d6a118" d="M 554.5,79.5 C 564.137,79.3266 567.137,83.4933 563.5,92C 554.884,93.7172 551.051,90.2172 552,81.5C 552.995,80.9341 553.828,80.2674 554.5,79.5 Z"/></g>
<g><path style="opacity:1" fill="#d8a218" d="M 617.5,86.5 C 613.285,88.4364 608.619,89.1031 603.5,88.5C 603.639,81.8589 606.972,79.0255 613.5,80C 615.923,81.5707 617.256,83.7374 617.5,86.5 Z"/></g>
<g><path style="opacity:1" fill="#d8a218" d="M 956.5,79.5 C 966.137,79.3266 969.137,83.4933 965.5,92C 958.992,93.7514 954.992,91.418 953.5,85C 953.613,82.6013 954.613,80.7679 956.5,79.5 Z"/></g>
<g><path style="opacity:1" fill="#73560e" d="M 617.5,86.5 C 618.404,87.209 618.737,88.209 618.5,89.5C 613.305,89.8205 608.305,89.4872 603.5,88.5C 608.619,89.1031 613.285,88.4364 617.5,86.5 Z"/></g>
<g><path style="opacity:1" fill="#d8a218" d="M 391.5,95.5 C 395.833,95.5 400.167,95.5 404.5,95.5C 404.91,101.091 402.243,103.758 396.5,103.5C 391.264,103.024 389.597,100.357 391.5,95.5 Z"/></g>
<g><path style="opacity:1" fill="#d8a218" d="M 501.5,95.5 C 505.833,95.5 510.167,95.5 514.5,95.5C 514.559,100.933 511.725,103.6 506,103.5C 500.73,103.042 499.23,100.376 501.5,95.5 Z"/></g>
<g><path style="opacity:1" fill="#d7a118" d="M 712.5,95.5 C 716.833,95.5 721.167,95.5 725.5,95.5C 725.831,101.333 722.998,103.999 717,103.5C 712.153,102.811 710.653,100.145 712.5,95.5 Z"/></g>
</svg>
